<svg width="32" height="32" viewBox="0 0 32 32" fill="none" xmlns="http://www.w3.org/2000/svg">
<path d="M14.3909 16.8054C14.7364 17.2677 15.1772 17.6503 15.6835 17.9272C16.1897 18.204 16.7494 18.3686 17.3248 18.4099C17.9002 18.4511 18.4777 18.368 19.0181 18.1662C19.5586 17.9644 20.0493 17.6486 20.4572 17.2402L22.8708 14.8242C23.6035 14.0647 24.009 13.0476 23.9998 11.9918C23.9907 10.936 23.5676 9.926 22.8218 9.17941C22.0759 8.43282 21.067 8.00933 20.0122 8.00015C18.9575 7.99098 17.9414 8.39685 17.1827 9.13036L15.7989 10.5075M17.6091 15.1946C17.2636 14.7323 16.8228 14.3497 16.3165 14.0728C15.8103 13.796 15.2506 13.6314 14.6752 13.5901C14.0998 13.5489 13.5223 13.632 12.9819 13.8338C12.4414 14.0356 11.9507 14.3514 11.5428 14.7598L9.12922 17.1758C8.39645 17.9353 7.99099 18.9524 8.00015 20.0082C8.00932 21.064 8.43238 22.074 9.17822 22.8206C9.92406 23.5672 10.933 23.9907 11.9877 23.9998C13.0425 24.009 14.0586 23.6031 14.8173 22.8696L16.1931 21.4925" stroke="#406BE7" stroke-width="2" stroke-linecap="round" stroke-linejoin="round"/>
</svg>
